<mxfile host="app.diagrams.net" modified="2022-12-28T21:53:45.909Z" agent="5.0 (Windows NT 10.0; Win64; x64) AppleWebKit/537.36 (KHTML, like Gecko) Chrome/108.0.0.0 Safari/537.36" version="20.7.4" etag="V6DXyTC_8Xly7jfU3Ajg" type="github">
  <diagram id="Ju4u09LskTiRAbeZ_m5J" name="Page-1">
    <mxGraphModel dx="538" dy="277" grid="1" gridSize="10" guides="1" tooltips="1" connect="1" arrows="1" fold="1" page="1" pageScale="1" pageWidth="1700" pageHeight="1100" math="0" shadow="0">
      <root>
        <mxCell id="0" />
        <mxCell id="1" parent="0" />
        <mxCell id="zZKbL9tinufXiHi_ggS--3" value="" style="edgeStyle=orthogonalEdgeStyle;rounded=0;orthogonalLoop=1;jettySize=auto;html=1;" edge="1" parent="1" source="zZKbL9tinufXiHi_ggS--1" target="zZKbL9tinufXiHi_ggS--2">
          <mxGeometry relative="1" as="geometry" />
        </mxCell>
        <mxCell id="zZKbL9tinufXiHi_ggS--4" value="" style="edgeStyle=orthogonalEdgeStyle;rounded=0;orthogonalLoop=1;jettySize=auto;html=1;" edge="1" parent="1" source="zZKbL9tinufXiHi_ggS--1" target="zZKbL9tinufXiHi_ggS--2">
          <mxGeometry relative="1" as="geometry" />
        </mxCell>
        <mxCell id="zZKbL9tinufXiHi_ggS--1" value="Sign-up" style="rounded=1;whiteSpace=wrap;html=1;" vertex="1" parent="1">
          <mxGeometry x="190" y="90" width="120" height="60" as="geometry" />
        </mxCell>
        <mxCell id="zZKbL9tinufXiHi_ggS--2" value="Sign-up" style="rounded=1;whiteSpace=wrap;html=1;" vertex="1" parent="1">
          <mxGeometry x="190" y="230" width="120" height="60" as="geometry" />
        </mxCell>
      </root>
    </mxGraphModel>
  </diagram>
</mxfile>
